<mxfile host="app.diagrams.net" modified="2023-12-25T18:49:13.503Z" agent="Mozilla/5.0 (Windows NT 10.0; Win64; x64) AppleWebKit/537.36 (KHTML, like Gecko) Chrome/120.0.0.0 Safari/537.36" etag="jYSPc01KNjY59Ev6Lptl" version="22.1.11" type="device">
  <diagram id="HkxHsMX1GyFOMRPFZglZ" name="ModArrayBlockDiagram">
    <mxGraphModel dx="1050" dy="530" grid="1" gridSize="10" guides="1" tooltips="1" connect="1" arrows="1" fold="1" page="1" pageScale="1" pageWidth="827" pageHeight="1169" math="0" shadow="0">
      <root>
        <mxCell id="0" />
        <mxCell id="1" parent="0" />
        <mxCell id="2wve9cfzZO1Ha7sk24H2-4" value="" style="edgeStyle=orthogonalEdgeStyle;rounded=0;orthogonalLoop=1;jettySize=auto;html=1;" parent="1" source="2wve9cfzZO1Ha7sk24H2-2" target="2wve9cfzZO1Ha7sk24H2-3" edge="1">
          <mxGeometry relative="1" as="geometry" />
        </mxCell>
        <mxCell id="2wve9cfzZO1Ha7sk24H2-2" value="Выбор из&lt;br&gt;массива тех строк, которые содержат&lt;br&gt;&amp;lt;= 3 символа" style="ellipse;whiteSpace=wrap;html=1;" parent="1" vertex="1">
          <mxGeometry x="150" y="20" width="120" height="80" as="geometry" />
        </mxCell>
        <mxCell id="2wve9cfzZO1Ha7sk24H2-6" value="" style="edgeStyle=orthogonalEdgeStyle;rounded=0;orthogonalLoop=1;jettySize=auto;html=1;" parent="1" source="2wve9cfzZO1Ha7sk24H2-3" target="2wve9cfzZO1Ha7sk24H2-5" edge="1">
          <mxGeometry relative="1" as="geometry" />
        </mxCell>
        <mxCell id="2wve9cfzZO1Ha7sk24H2-3" value="string[] GetArrayThreeSimvol (string[] array)&lt;br&gt;count = 0;&lt;br&gt;i = 0;" style="rounded=0;whiteSpace=wrap;html=1;" parent="1" vertex="1">
          <mxGeometry x="85" y="130" width="250" height="60" as="geometry" />
        </mxCell>
        <mxCell id="2wve9cfzZO1Ha7sk24H2-7" value="Да" style="edgeStyle=orthogonalEdgeStyle;rounded=0;orthogonalLoop=1;jettySize=auto;html=1;entryX=0.5;entryY=0;entryDx=0;entryDy=0;" parent="1" source="2wve9cfzZO1Ha7sk24H2-5" target="4u0Z4RNv-aDqTENbkY7Z-2" edge="1">
          <mxGeometry x="-0.2157" relative="1" as="geometry">
            <mxPoint x="210" y="351" as="targetPoint" />
            <Array as="points" />
            <mxPoint as="offset" />
          </mxGeometry>
        </mxCell>
        <mxCell id="2wve9cfzZO1Ha7sk24H2-22" value="Нет" style="edgeStyle=orthogonalEdgeStyle;rounded=0;orthogonalLoop=1;jettySize=auto;html=1;entryX=1;entryY=0.5;entryDx=0;entryDy=0;exitX=1;exitY=0.5;exitDx=0;exitDy=0;" parent="1" source="2wve9cfzZO1Ha7sk24H2-5" target="2wve9cfzZO1Ha7sk24H2-14" edge="1">
          <mxGeometry relative="1" as="geometry">
            <mxPoint x="420" y="260" as="targetPoint" />
            <Array as="points">
              <mxPoint x="410" y="260" />
              <mxPoint x="410" y="568" />
            </Array>
          </mxGeometry>
        </mxCell>
        <mxCell id="2wve9cfzZO1Ha7sk24H2-5" value="i &amp;lt; array.Length" style="rhombus;whiteSpace=wrap;html=1;fillColor=#f8cecc;strokeColor=#b85450;" parent="1" vertex="1">
          <mxGeometry x="62.5" y="220" width="295" height="80" as="geometry" />
        </mxCell>
        <mxCell id="uXvdL7iweBgSMnL3xsB6-6" value="" style="edgeStyle=orthogonalEdgeStyle;rounded=0;orthogonalLoop=1;jettySize=auto;html=1;entryX=0.5;entryY=0;entryDx=0;entryDy=0;" parent="1" source="2wve9cfzZO1Ha7sk24H2-11" target="4u0Z4RNv-aDqTENbkY7Z-27" edge="1">
          <mxGeometry relative="1" as="geometry">
            <mxPoint x="290" y="503" as="targetPoint" />
          </mxGeometry>
        </mxCell>
        <mxCell id="uXvdL7iweBgSMnL3xsB6-9" value="Да" style="edgeLabel;html=1;align=center;verticalAlign=middle;resizable=0;points=[];" parent="uXvdL7iweBgSMnL3xsB6-6" vertex="1" connectable="0">
          <mxGeometry x="0.1242" y="1" relative="1" as="geometry">
            <mxPoint y="-7" as="offset" />
          </mxGeometry>
        </mxCell>
        <mxCell id="4u0Z4RNv-aDqTENbkY7Z-34" style="edgeStyle=orthogonalEdgeStyle;rounded=0;orthogonalLoop=1;jettySize=auto;html=1;exitX=0;exitY=0.5;exitDx=0;exitDy=0;" parent="1" source="2wve9cfzZO1Ha7sk24H2-11" edge="1">
          <mxGeometry relative="1" as="geometry">
            <mxPoint x="60" y="260" as="targetPoint" />
            <Array as="points">
              <mxPoint x="60" y="332" />
            </Array>
          </mxGeometry>
        </mxCell>
        <mxCell id="4u0Z4RNv-aDqTENbkY7Z-35" value="Нет" style="edgeLabel;html=1;align=center;verticalAlign=middle;resizable=0;points=[];" parent="4u0Z4RNv-aDqTENbkY7Z-34" vertex="1" connectable="0">
          <mxGeometry x="-0.071" y="1" relative="1" as="geometry">
            <mxPoint as="offset" />
          </mxGeometry>
        </mxCell>
        <mxCell id="2wve9cfzZO1Ha7sk24H2-11" value="array[i].Length &amp;lt;= 3" style="rhombus;whiteSpace=wrap;html=1;fillColor=#d5e8d4;strokeColor=#82b366;" parent="1" vertex="1">
          <mxGeometry x="60" y="384" width="300" height="80" as="geometry" />
        </mxCell>
        <mxCell id="4u0Z4RNv-aDqTENbkY7Z-9" value="" style="edgeStyle=orthogonalEdgeStyle;rounded=0;orthogonalLoop=1;jettySize=auto;html=1;" parent="1" source="2wve9cfzZO1Ha7sk24H2-14" target="4u0Z4RNv-aDqTENbkY7Z-8" edge="1">
          <mxGeometry relative="1" as="geometry" />
        </mxCell>
        <mxCell id="4u0Z4RNv-aDqTENbkY7Z-33" value="" style="edgeStyle=orthogonalEdgeStyle;rounded=0;orthogonalLoop=1;jettySize=auto;html=1;exitX=0;exitY=0.5;exitDx=0;exitDy=0;" parent="1" source="4u0Z4RNv-aDqTENbkY7Z-27" edge="1">
          <mxGeometry relative="1" as="geometry">
            <mxPoint x="60" y="260" as="targetPoint" />
            <Array as="points">
              <mxPoint x="30" y="516" />
              <mxPoint x="30" y="260" />
            </Array>
          </mxGeometry>
        </mxCell>
        <mxCell id="2wve9cfzZO1Ha7sk24H2-14" value="string[] arrayThreeSimvol = new string[count];&lt;br&gt;i = 0; j = 0;" style="rounded=0;whiteSpace=wrap;html=1;" parent="1" vertex="1">
          <mxGeometry x="83.5" y="547" width="252.5" height="42" as="geometry" />
        </mxCell>
        <mxCell id="uXvdL7iweBgSMnL3xsB6-13" value="" style="edgeStyle=orthogonalEdgeStyle;rounded=0;orthogonalLoop=1;jettySize=auto;html=1;" parent="1" source="2wve9cfzZO1Ha7sk24H2-23" target="2wve9cfzZO1Ha7sk24H2-25" edge="1">
          <mxGeometry relative="1" as="geometry" />
        </mxCell>
        <mxCell id="2wve9cfzZO1Ha7sk24H2-23" value="return arrayThreeSimvol;" style="shape=document;whiteSpace=wrap;html=1;boundedLbl=1;" parent="1" vertex="1">
          <mxGeometry x="450" y="614" width="120" height="80" as="geometry" />
        </mxCell>
        <mxCell id="2wve9cfzZO1Ha7sk24H2-25" value="Передача данных следующим&lt;br&gt;методам" style="ellipse;whiteSpace=wrap;html=1;" parent="1" vertex="1">
          <mxGeometry x="450" y="786" width="120" height="80" as="geometry" />
        </mxCell>
        <mxCell id="4u0Z4RNv-aDqTENbkY7Z-20" value="" style="edgeStyle=orthogonalEdgeStyle;rounded=0;orthogonalLoop=1;jettySize=auto;html=1;" parent="1" source="uXvdL7iweBgSMnL3xsB6-1" target="4u0Z4RNv-aDqTENbkY7Z-19" edge="1">
          <mxGeometry relative="1" as="geometry" />
        </mxCell>
        <mxCell id="4u0Z4RNv-aDqTENbkY7Z-21" value="Да" style="edgeLabel;html=1;align=center;verticalAlign=middle;resizable=0;points=[];" parent="4u0Z4RNv-aDqTENbkY7Z-20" vertex="1" connectable="0">
          <mxGeometry x="-0.4" y="2" relative="1" as="geometry">
            <mxPoint y="4" as="offset" />
          </mxGeometry>
        </mxCell>
        <mxCell id="4u0Z4RNv-aDqTENbkY7Z-25" style="edgeStyle=orthogonalEdgeStyle;rounded=0;orthogonalLoop=1;jettySize=auto;html=1;exitX=0;exitY=0.5;exitDx=0;exitDy=0;" parent="1" source="uXvdL7iweBgSMnL3xsB6-1" edge="1">
          <mxGeometry relative="1" as="geometry">
            <mxPoint x="60" y="654" as="targetPoint" />
            <Array as="points">
              <mxPoint x="60" y="734" />
              <mxPoint x="60" y="734" />
            </Array>
          </mxGeometry>
        </mxCell>
        <mxCell id="4u0Z4RNv-aDqTENbkY7Z-37" value="Нет" style="edgeLabel;html=1;align=center;verticalAlign=middle;resizable=0;points=[];" parent="4u0Z4RNv-aDqTENbkY7Z-25" vertex="1" connectable="0">
          <mxGeometry x="0.0207" y="1" relative="1" as="geometry">
            <mxPoint as="offset" />
          </mxGeometry>
        </mxCell>
        <mxCell id="uXvdL7iweBgSMnL3xsB6-1" value="array[i].Length &amp;lt;= 3" style="rhombus;whiteSpace=wrap;html=1;fillColor=#d5e8d4;strokeColor=#82b366;" parent="1" vertex="1">
          <mxGeometry x="60" y="792" width="300" height="80" as="geometry" />
        </mxCell>
        <mxCell id="4u0Z4RNv-aDqTENbkY7Z-5" value="" style="edgeStyle=orthogonalEdgeStyle;rounded=0;orthogonalLoop=1;jettySize=auto;html=1;" parent="1" source="4u0Z4RNv-aDqTENbkY7Z-2" target="2wve9cfzZO1Ha7sk24H2-11" edge="1">
          <mxGeometry relative="1" as="geometry" />
        </mxCell>
        <mxCell id="4u0Z4RNv-aDqTENbkY7Z-2" value="i = i + 1;" style="rounded=0;whiteSpace=wrap;html=1;" parent="1" vertex="1">
          <mxGeometry x="170" y="340" width="80" height="20" as="geometry" />
        </mxCell>
        <mxCell id="4u0Z4RNv-aDqTENbkY7Z-13" value="" style="edgeStyle=orthogonalEdgeStyle;rounded=0;orthogonalLoop=1;jettySize=auto;html=1;" parent="1" source="4u0Z4RNv-aDqTENbkY7Z-8" target="4u0Z4RNv-aDqTENbkY7Z-12" edge="1">
          <mxGeometry relative="1" as="geometry" />
        </mxCell>
        <mxCell id="4u0Z4RNv-aDqTENbkY7Z-17" value="Да" style="edgeLabel;html=1;align=center;verticalAlign=middle;resizable=0;points=[];" parent="4u0Z4RNv-aDqTENbkY7Z-13" vertex="1" connectable="0">
          <mxGeometry x="0.0853" relative="1" as="geometry">
            <mxPoint as="offset" />
          </mxGeometry>
        </mxCell>
        <mxCell id="4u0Z4RNv-aDqTENbkY7Z-39" value="" style="edgeStyle=orthogonalEdgeStyle;rounded=0;orthogonalLoop=1;jettySize=auto;html=1;" parent="1" source="4u0Z4RNv-aDqTENbkY7Z-8" target="2wve9cfzZO1Ha7sk24H2-23" edge="1">
          <mxGeometry relative="1" as="geometry" />
        </mxCell>
        <mxCell id="4u0Z4RNv-aDqTENbkY7Z-8" value="i &amp;lt; array.Length" style="rhombus;whiteSpace=wrap;html=1;fillColor=#f8cecc;strokeColor=#b85450;" parent="1" vertex="1">
          <mxGeometry x="62.25" y="614" width="295" height="80" as="geometry" />
        </mxCell>
        <mxCell id="4u0Z4RNv-aDqTENbkY7Z-38" value="" style="edgeStyle=orthogonalEdgeStyle;rounded=0;orthogonalLoop=1;jettySize=auto;html=1;" parent="1" source="4u0Z4RNv-aDqTENbkY7Z-12" target="uXvdL7iweBgSMnL3xsB6-1" edge="1">
          <mxGeometry relative="1" as="geometry" />
        </mxCell>
        <mxCell id="4u0Z4RNv-aDqTENbkY7Z-12" value="i = i + 1;" style="rounded=0;whiteSpace=wrap;html=1;" parent="1" vertex="1">
          <mxGeometry x="170" y="744" width="80" height="26" as="geometry" />
        </mxCell>
        <mxCell id="4u0Z4RNv-aDqTENbkY7Z-36" style="edgeStyle=orthogonalEdgeStyle;rounded=0;orthogonalLoop=1;jettySize=auto;html=1;exitX=0;exitY=0.5;exitDx=0;exitDy=0;" parent="1" source="4u0Z4RNv-aDqTENbkY7Z-19" edge="1">
          <mxGeometry relative="1" as="geometry">
            <mxPoint x="59.96" y="654" as="targetPoint" />
            <Array as="points">
              <mxPoint x="128" y="930" />
              <mxPoint x="31" y="930" />
              <mxPoint x="31" y="654" />
            </Array>
            <mxPoint x="110" y="920" as="sourcePoint" />
          </mxGeometry>
        </mxCell>
        <mxCell id="4u0Z4RNv-aDqTENbkY7Z-19" value="&lt;div&gt;&lt;span style=&quot;background-color: initial;&quot;&gt;arrayThreeSimvol[j] = array[i];&lt;/span&gt;&lt;br&gt;&lt;/div&gt;&lt;div&gt;j = j + 1;&lt;/div&gt;" style="rounded=0;whiteSpace=wrap;html=1;" parent="1" vertex="1">
          <mxGeometry x="127.5" y="910" width="165" height="36" as="geometry" />
        </mxCell>
        <mxCell id="4u0Z4RNv-aDqTENbkY7Z-27" value="count = count + 1;" style="rounded=0;whiteSpace=wrap;html=1;" parent="1" vertex="1">
          <mxGeometry x="154.12" y="506" width="111.75" height="20" as="geometry" />
        </mxCell>
        <mxCell id="4u0Z4RNv-aDqTENbkY7Z-40" value="" style="shape=image;verticalLabelPosition=bottom;labelBackgroundColor=default;verticalAlign=top;aspect=fixed;imageAspect=0;image=data:image/png,iVBORw0KGgoAAAANSUhEUgAAAfgAAAH/CAYAAAC7Lc/HAAAAAXNSR0IArs4c6QAAAARnQU1BAACxjwv8YQUAAAAJcEhZcwAAEnQAABJ0Ad5mH3gAAGxFSURBVHhe7d0NdBTlvT/wry+t1kiSImAQbRLYlkLTSyIgF5CCYE7JCaWVRKhwKPVIjCjYnl6VyNvJkZcGpT0tqGkaPBY9YMEEetGccE9EoCr8ETDhlkK93ZigYGKC3BAN4q3o/3lmntmdnd1Ndje7m93Z7+ecgZ1nJ7Ozs7vze57f88zMFenp6V+BiIiIbOVK9T8RERHZCAM8ERGRDTHAExER2RADPBERkQ0xwBMREdkQAzwREZENMcATERHZUPycB3/r0xiXPwzoOIKGTavwuSqOmGld+O9HzyFZzQLX4eBTAzF3r5qVAlmG+lbuXPxnSQ5aqx5Fcbkqi0sOrNtZjHEpgDNW3suixdhbmK5mBOceTCsO15f/MrbtOIOskzfj30qvUmV9K3leLUYMBT498iT+vmefKo2cqd+twuMjktSc8MkR/Pq1VXhdzUqBLJMwtOPxRZzgMdglYi34a6ZXYdzKp03BLz45d6YjY7qcfHxp9ibh37TnxLQzVRXGCBnY9j6FikVqnijcyp/GtGmPiqkChy+osjBZ/8wZTEhORW0vgrsMyOOWPIFr1Hx8akTVrjzkyslH4H79H4X6c2KqOqsKE5U4Htc2XsSERy9gvSpKdPGTon9nMQ6vzsPhaLTe+8w0VIigvNc0/ecah3ouUmTLUL1exTRVFutM2+xvipf3IlvBHtu+GA+opzw5sWyWDKbxnonoWVFpO+YMk9mwFCxVZbGgc6s4/ohjUDRa7xSapQ/djIOdHZizowtFqiyRsQ8+Rkxbs0oc3KfDIdOcWqtInzZibmRb4bm34Xspn+DwodMibo7wE1xijTvYaVOV2HaI91BmKgtbqjhytM+8MF1Lubu2e9op5OycK6p6iepzzPn3i+j8f/2ZZqUQXIW5FQPQmXwOS0ovq7LEFUIf/EJkrCzAjWoO6ELz5kJ81CIfW5+zasSp1YvRqT3Wl02S/VltBXr/uvJRTR6a31EzRt+74b1qHN66Wc0Y9HVB/F3LoCpkjzX6pMyvpwx+At9bOBbXq1k38/sQVP9628503PlHVdad+y+gedb/hdYHr/qJcagCP17hVIX+ycCwbHw/NQd8avq7Byqewt3dNPqt/bfaukY6sW7WR5gtKhiw9u9q/az9RfB8Au8Xmtd9Gi9Pexp/UHP6Np0XZXvwLdVXrLlQL9a9De5d4u5LNpi33+jX9ShT9Pfm+boa0zYuq1NlBlMffH22afst2xX49gsB9T1b36esgJi3T2ZrVIWu28pIT+sRtPfowN/L3sINJWKdahnX56Xew7f97T8/22L9Lvn6THRqG9t73wcvW+/L//3r2D69m9a712/Y9Dv3+/tWzGN4tGNLmva7/2yq3r+u8zxuGH3vBo/jk0F73ZE4Z12XrzFD1mOai+fr6v3rrajatRgVqqw7xbfVojC5N33wRcjbuQxjTL/NjkPrsGlFpZoTFtVhZeEgHC0bhdbCJsxwfT+ceHVaLuq1x2o97duxuuoWLCmZAKMD02t9Pbxm2prjKBqfjOaqTLzokblSf4eDqJw1D62q1LD+mdOYMyy1++9RAgiyBa8CuAyyMl2uTXvwjUKjn2szmlV5w5EuMS+/sMZycrIEW+H6sY+JLztcy8m/uzG/CjcOVgsYqfnVT6K5Q5X5cWN+LbJv2GNafhhGmPvg1I8folLhuU65nabgHmUPFOaIA9Jp1AYQ3OVBVw9EqsVXJn5S44tdqfw/FLvLPxXznq1Da3rXgWkj++HTk2+LALYX9eLlHdm+2o79MK5EHOxhZBdkn2s67vZqaYqyvcX43skKtdweOFNysMyULn+gYi5Qbtom0fq+3rT9KBef3wXxvRh5m2Xd05AjF3GesgSnwDhksHNtv75dD3t1f/S8/XqrW1YmjPcglnFMt3QJyICpAp56n+sOQezDVViXqxYxDLzR8j6tTNkKLVPh3/cWTcTHZfKz6Scer9Lfr/ybFPE5i9f9Q4P8+3TkWDNCi0bolYIqIzjrXUV3DxQVA7X9xvcssl0fl3HHyIvi53htj8Hd/RsW0+bzuGXeQv35llX4uyo/9Z6YlwHWWE5OXl18SchYKAIyjGOa93HDSM0f3nxE+035p6/rlo+NbavGR6ljkW1sm6SCu6wkuJaR5dp2eh8foymnYrH4/WVi9TQ1VTmROn4ZlqyxJruTMaZEBHeIAK4tuw5HLzgwY+dWpKklNI45WFmSBWeZ5/rmm75/Pb1m64paNIv/M7LLtHmX3ClwiEpBx8n9XsFdWnpcVik6MPp+fT5RBRfgB39LfIVFDfaUuQUtgnpv+sUtX+zPj58UP6IkfMMI8MGQ63K17veh45+ikpHa3/VDvWbUSBFIG/GBqw9tHz56q1H8Pwz9b9VLos+Bbw0U/104j3/qBf6JllqeiEnOKlMLrG4bNh76RATJ6cGn11V6/u8H9IrFP9s/EZvjO00vW2/u1pkTe0+KZVP649uqxCArFO5Wnl5pMAexPxRbWp9eAd1Ytx6UXLyCUJA8Wqf6dnlXInra/mmYPV5UiA5tM72HvSiWQdQx0RW8p62ZKLZVtJRNrdm9K7ZpgXdcofGKe7FDfG6QFQgRTHs/1qIfrm9/y7Vd16eISqDr9fvhBrn68lNi74pNtVTiHshOF98/sd/V37q235y5UN8z8/sMu2mXkJUsPoPj3QyLG9xf/Ia7cO64qR9cBnWvrF7g5Kh4d1bQ+7gRFNH4cffRb8Z5Wcno/y3XupJH6GcCtbgyAJvRIhtDqSORGsoxL4zqi0eh1uO3uUMEbrlpUzwDtyBb2auLS9RcJepPiiN4yiB4vgXZqjets/yYFqxTh7grDD2/ZglOaF/a0cjR5nVpk7OQKtb/pkc2wOSP12rf9UE3JXaaPrgA3/K++GnpLeWMcAXE8+97Vg5UDdwrBRaAT/+5r9uKxjU3mE4n8dCFz/qo9S5bVDeY0lOS1ko0Dbwy+uCnTXZoLf16yyCrvWfPi3/741tBHni19ZkO7HtFoP/UVwtPaD1rBD3d3hVPiJadNdX7CT72XEzPKFhT3B6ceL9dPVT07RCtULF9BmsQCpazwf8WuPWw/aqSYVSIXJznte3VgqhYQmZFvDMN6n2aKjv6PtyjHYhkFkP7vHvR/+7xHn1WGFWlwqMSp2dG9CyOpLbfx98bn4v+PiNg2BeibXgd2mSd258Wua9lS9mU5eulrjbPQXOf7ykULevQWtOejR+rO/CN/uqhl9Y+PAb5U4lWy2/T0HHWM7C2rhglWuBGil650AbPt1SCF0Ur3TNFb+X9mvUN8hfiQJbruFSEnJGyJnjM8/U8XI028QEmD/xCzSemIFP0MgWvp7VlkB+3Uk7h+6FFWufrMsU2DLdMv0OV3IEbJ8oa9Ul09NmP6zQ+tpxipB/49bSoOSX47YGy312mkd3BX5vM/cEBUwfy9o9MrbS38XexLY7cCA7ykv3Flu33GjMgWou14jftbmHrQcgpygMJ05EybYg8OuvdFebt31siu1gMqsIm0/bmZcTk9T41e1Gs0uDrXC16H6n8MPGqxGmVFh/dQ+bvhUXakEhF+ABoDQCZ1tbT4foxKF5Ox1UZw9SxGOxqIC3EYDlm6L2GPk3Pa3K3YsneJqw0Te4+9ggJ5DVVq96VptfS8504WmVkEMifEEbRiy/pJnOfVHhr0xGlpfdE4JD9/tqB4TFkwMcgmKhSLTsf6W4rLYUuU6dGv6jH5GOAWXe09Lz43yMQqcFc1vR4uKgBb9dbzhR42RJbJK2/2NgOFYSsmYto0zMlcgCbeb+7J318g6qwWd6ja+omm6FV7LRKnTmVH2ZGJU6l6bXMSJDjGqzZnOhzj/U5XKN3sY2IkyB/zSA98exuIKkxTb3oYggLGWjlYDin0a+uT69G8qMO+DVVF4BK02vp+QsnUB9iNi+RhBDgTWRtWgV5a5/5521y6ENaaH3pEaFa6x4DBMXUp8Fd53fwk0VQqfi6j7TBJ/5aW0a636uyoAKMOT0eLvprBtiPrvXN69sRShCKCI9UvD/eqfjY4hQVQTlmQKbpVWbEo/tCjYHwMRbDXxdR2DReLVqxFzHI1wBzf+QgXC3Iex9rPv+4F33pEaG31rU+f/MxqK+Du6D3aUe3VRzMa+qD7WSaXk/P+xtc5/YFBokaX2f71Wo+MQUX4G99Gt9zpbd1+sA1H33YRl/ZVNMI0j61D59p8dE94CVmlD+ttWLlSO9uz3lXQW9cib+LoZjpLUnfg+/89RMLqoXnawBab+kVFHPlQb9gje/UtR5oZN/03Y5eDK4LJ9V14CjsPoX+hypRSbKMvvcisxk+ntfPqIjw+9UG24kKZcUIOC7UY4d1TMeKt7Tn7zZvn9jeh7UBhnsiV9Haey1OyIbaKP9VbnmFTOv4H23gmo8+bL2RYe6S62uN+KxD/LZuCKYGEx2tZ9vEv8lwTDYGwMnT0CKbog/uNfXBdhmF8pS6bgbXGe6/JI4uQNuHsXGZ474SXIAXtWUnHlKpJX3KHtvq+xQz2bqXNeuhBablg0+jaZeb1P72MWTIMx9M6wt2oF/nVnXaimt73FPYBg2GSBvMVXVaC/KulLnWt2tuMemnTL3s9NEP7xUs5LJyAJfnsloFQqXnfQ88Uy24SKTpRUVG9jO7BpTtLcYNdb5T9JLeXyz0YnBduMnPST/lzb1Ptck8OE5UBH5snD5nXkZMrgqcXKZhhNfz+qlppu4W85gFbayFaQxAyAPy1CmRjnTT4DozOS7Asv3iuyivJWA+D16esqk/r7p2TMuHdnGmq7Dv5HUiJl/ye6lROQDu/AjP3+6I/n5OMRPHK3narbtLTkzm02YDIk8NVn+rzq93p9eDPZ7tw0dVR/CpxzHRmPq4m7M8F5WHOrVT1PS+8GUYUBfhFH2Qr6kPthO6HVynWz9K1KQ6B2B7INcwsbH4udlMr6lz+OWpdJa0vH4hiz680A35pvrsA70AENnB53htTyscjWnIeCjmcm29Y1yEx6vP/Q7cuEQ2YPr6QjcxTrvIjsPHRW8sgj1221jv+uDjiTqH39epdFpfHcUco883kAsAkV1cg+3/T7biW/Ga3S5Sogb5ep9Kp7oPqVs52Q7gwkHUdTsG5DK2FZ9DMlvvmsQJ8Ooc/uu/fYdnik7Uqh3yNJU+PVWOvCxarF2O1+OiPpQQKksHYnsj4JjVjm2h9UHEJm1cEnDjCMu4pFuf1i9tGwunysUoecnaGY5OHC33viytmXEXwu2zk9BDL31CSKAUvaTS9GrOIEe1et0hKpB7vQeyDAVFvya8PN8f2lXl7H7nNPIn9u4HHxZGml7NGnxd3573g5eXsjUG3YngXma56p2Vdjzm/eDNEizAExERJYbESdETERElEAZ4IiIiG2KAJyIisiEGeCIiIhtigCciIrKhXgR4eRrLaTTvEdOOLrhv4U9ERER9LeQAr11QAAOwdno6MnhRASIiopgSYoD/HKOHAc7XGNiJiIhiUWgBftoXGKQeEhERUezhIDsiIiIbYoAnIiKyIQZ4IiIiGwopwBdNuohkpOIY77dLREQUk4IK8EWl7dp570vQHxnTU7BUlRMREVFsCSrAV5YOFIE9HZtwXgT6C1ivyomIiCi2hJSir3zjOnSiA6PvVwVEREQUUzjIjoiIyIYY4ImIiGyIAZ6IiMiGQgvwe69Gm3pIREREsSfEFrwI8J2A407eJpaIiCgWXZGenv6VehwkeT/4M5iQLB52DsBa3jKWiIgoZvQiwBMREVGs4iA7IiIiG2KAJyIisqGAA3xmZiauvfZaNUdERESxjC14IiIiG2KAJyIisiEGeCIiIhuyXYBPnleLcStr8b3pd6gSIiKixMMWvD+Dn8D3REUh41Y1b1Npa45j5d465Kh5IiKyB9sF+M6teTi8Og9/37NPlVB8mopHdq3Hs65pBe6dop4iIqIesQVPsWfKPSjb9UMMbfovPHjXUm3a3dQPY3/BIE9EFKiAL1Urz4NvaWnBpUuXVElskX3vI4aqGeGjmjw0v6NmlGumVyH72yfRsOl9DF5ZgBtV+adHnnS1+K3rsfK13oAsqsPKQoeaEZzbsbq4RM3oZLq8aLy8uL9iXSZ3K5aUTEBHVSZeLFdlQk5FE2YMPIjKWfPQasxD/G3VLdryqfpiaHb9XRnm752DDK3UFydenZaLejUXbdN/ux4zb2jA7xe8hHdVGTAM9265H2M/FkH/V6+rMt2CDdWYmdmFdzb+DGsPqEIiogRnmxa8kZo/vPkIPlVlPqWORfbK6fhss1q+phHXj33M1dduXY8M6Nq8mkIJ7jLgyuAuA+zqaWpqGI35i9QCKELeziYR3NtEYDWW2Y5mxxys3LkVaWqpoMi/LRmEN9X6Kg91IqPwOPJy5ZMleNFUrgd043Xl1HfBXabmszLF5/Du26bgLtz7Q4yVdZ/M72K6XqIswPfF8kAShk+YpJUQEVGCpug/qinERy1q5p0GfCT+SxoUoVH3otV9u2i4u1vPSnmue37RbIxJ6cTRMnNgFUG4ygmkTECuqyIQDM/1tR44gQ4kY4ApiRA+92FjTQ1q/E2b7lPLBWDKjRgg/jvX0qjPC8OXrcCzM4Hdu0+Luf4Y7JGm34K/Ncn/u/DuwTe0EiIiSsgA34jzoaTYQ5Q2OQupooV8whzcLXKyZdRtQ2udPu9SfgzN4r/UISHcdf/CCdRb1xcxz+Hh/Hzk+5uWPKeWC5ZMy6/HLwYcxIN3PYs9qtRqyyMFKChgep6IyIyD7CJs8MBkEWzbYCQM/OpmmdSBw9SjRCJH0d+P4e/+0avPnYiIesYAH2Et7Z1AyiAMVvOh6Gh3p6tjUxhT9Ps/wjnx39CZPwR2L0XJOlOqfnB/8e95tOzX54mIyD8GeH9a3keX+K+3ffOtZ9vEvw5kddOPXt8g+9qzkKMNgDNZNBoZ6ITzQKUq8KUMWb3oV9e3bxDSrK8dlHCm6F/HCdmn3tmAV57XS3TDMGF4P6DpH16p+kmPv4Dq6mq88DgH2RERGRjg/WrEZx3A9WMLYDpxLXjlO3D0Akwj2JVFde5R9NoyyRizyDxivgzz5Wl1zlrUGn3pdR9AbBIyssv0+R5PdwuAs00bfDem0Fhn39uzuwGdydm4d5m7a2L6b+/H2OTT2O2Vrp+EH3wnSXuUNObHWKA9IiIim5wHvxAZpvPaPTXi1OrFoh2szoMf2+qa1+l/m2Q6F97Ne72hngevnZtubml7nQcvT5VbhjEpalboOLQOm1ZYWu/qXHjzue11Q46jaOQJz/PgTefFa/ycQ6+xnqPfx+fBa+TFbn6RbapcieDub6Ddzzeg+kfyXDmeC09EZLDNhW4okS3AhuqZyOx8B7+7dy14shwREVP0ZAOTHp8G2X5vOsDgTkRkYAue4pcrNd+E3QWPYIteSkREAgM8ERGRDTFFT0REZEMM8ERERDbEAE9ERGRDDPBEREQ2xABPRERkQwzwRERENsQAT0REZEO2DPDz8rdgW7Fpyv+peiYW3IG1d9Zi13f93KXu1qcxbmUtxi15Ateootggr5XfhJV7m9w3yUlg8nr/cl8sWVOkSoh6pn1vdppvKhVF8p4T4jsbldfv9wR23VWFtf3UPPUJ2wV4Gdzzb76Ihp0LMLdCTTV/Vs/2veLbHsNt/Rqx5x/WG9uE2eAn8D1RUci4Vc0TUcT1aQCPJZ+swp6zSbjtzqdRrIoo+mx2JbufYl1xHjLO1MZUUDdM/W4VHh8BvP1aIZZ/ogojRQb4hWPRFeLd7+JGMHedo/in7ooIX3dajAE+7+Ro0tPz9iKzlaJBgyP49WurYL3RM0WeLVP0FztOq0exZCHuHpGET089E/ngnijufRDPiuCOI3/Eg3ctFdMfcaQzHTN3PYjpapF4c9+mGtRsuk/NEcWzfVh++Ag+7TcWS/x1SVJE2bIFP+jEH7DwrUOqzEq18tWcqA6gYeciPNmuZoWJE8vxUFY7aipqMWTuA8g2+pE+OY5ntv0Wb6nZYOit91ZU7VqMClXmQfa95w9TM8J71Ti8dbOaUbRW+Uic21yIz6bWYsRQVd5xBA2bVuFz8TB5nqnch+DvZ2+9T30njpaNQm2dmu0zw3Dvlvsx9uP/woO/MrcNpuKRXT/EABH0S9Y1qjJpEpY//0vcmty7G9NoLTDTrfPl/fi97q8fkikofelRjE0GGv+Sj4dDaZyq1m2qmvX+rNRn2b4dq6tu8Vi2w6NFXIb5e+cgVZadnY2Vhe437PV+Zb+u6XnAiVen5aJee2x8d8xlSqgt8SD+Lm3NcRSNd+d2PN+jen7kCdGa/gC54v0axwTrcpL1c3dxeu9LLxfcLXZXC17sw7tNf+Pve7RgQzVmZnbhnY0/w9oDqjBY1s9IbnNxiZrxNmXVDjw6rhU78x/Gc6rMm/q+ntuJ/CX+l5KKb6tF4ZBG/8c+ihgbtODH47G5xoA6PXBfl/WAaZBdOR4bqC+JEU9oy8gKgNE//8wJIHvWFqwboZZxSUd+8QP4zmlj2Vo09xuFh0IasHcHpt2cBJxt8P8Ff2cxDq/OE9OTaO5QZT4lIWNhLW75+Em1fDU+Sh2L7HkLtWc7t8oyMW0WNWcxLwO6vpw+BZ+ur0TtrEysniamKqcqiwFTbsNwcex+72+eib/hyyZA1m+Sh4vn9SLd5B9oy4uqKr7/c60kJPXFal+UHUS3H1NQ7sPGGhncu3DkNyEGdxmUFwEvy21T06vOZIwpOY68XLWIwTEHK0uy4CxTy4rPNXX8Mq/Bk7JsZSFEcNaXqzzUiYxC0/pksM0+5nq91dPW4egFB2bsrUOOtoD47tTJ74wDWZZ1p03OEsGtE84DIb3ZHslAWjS+zbXt8vOCeD9egyJTJqBobx7OdbMv9OAuKynuZSRZEdACZd08bFLPvSqfkgHdWFZO1nS8fE3T/tf3q7HPzBbg+/JmieI3P3zCJK0kJOW5alvk56PKoqjijKxoD0P2Tfo8RY8NAvwhPLnNGFAngrAouWgK4HMrjNa5qAjkpANnaj1a92+99QIaPgEycn6FiarM0PzXBaZl/4y/nxH/pdzktVyP+t2Bkf1ExfmMpUUeKtG6//seY5DeZpx/T/zX/1sxNureh6KNqKmp8TttDGZAeuY3kYxP8HGTmhem/3Y9fjG8EbuPiA80+ZvaPeJdDvwV73bKB03425+0ktgwtRQ7amZhWOcRPJU/G6Uhd1SW4EVLIKmvkpWQZDgmW3esDFamln35Me13kzrEspwWqNwt79YDJ7T1DTAagzKwebQEfQR0te6M7DJ9XlOEnJGituWsjUwmSFQ8bhfb2FxlyhqIbX1ZBNLU8bO9AmlzVXf7ogxZYl0dh3a411W+QwuUqSOnhDiYzjOzou9X70oQsAV/077fXXj34BtaSVz6sEF840SlLplp+mizZR+8TwPH4zsiyHr3zx/CW6cviiCcakrbSxfRcU49VLbWiApDKCn6fv1xvfiRng9T3/tHp8JUUYi2yoeRn5/vdwqt5SrJtPx6TDn3Rzy44CURwn15A2vvLUBBLN03XlZ4/mMskt7bifx7SrFfFYdN3Qe+swwX2tCiHupE5UC08LxS3u0feLY8VUu12y4JZ5vlNUtwQov5o92BNXcKHCkisDb4TxP3hp4dcOKEZTtbz7aJfwchzSOj4b2ch9xb/KferfsnUBdOoD7Ais2WR+R3thfp+ZjQqB37rk82dUFSVCROgFfazvvrmx+IIUYqn+JH5j0o2/VDYPdSS597rJuC0qnhPeDJPmXtPGfX5O5XjhSZvvZ4TR990Xomwd1C1QLwhYOo6y6w9sLggbIvRnYVWLbNY6xAgESl5k1RQfFo+S+arY1JiVQFJfpkF5E7k/bouCRRNgyzTGU7Vk2xZOD08SIYOstUtkN8p7UVUoxIuADvXzvOmgbaUQSEM0Xf9L/oRD+MnTkM7/5+KTY8r8qFzAH9gM7/9dOSjxX7UXpPPvJ/cwRd2kFyozjMhs4YUCYHa7n6fqdt19LNkaL3Tct0s+k1fY1NqNsP5wUjTa+n5ztO7g+t9RuAlnbZF2PqM/eYgh0gWoQ0reJvqjCIikL4BlfGgufwsCmT9tThLlHWiJ2mstlP7Ldk4J7CEbmbZfbJVdabLiaKhMQJ8O2H8D+yr32odZDceExMvw44cxJbVUnYfXIenyIJ/aN5VaeW9yF/pkmDYqjfK5wp+v1v633qTQfxvEdueyqyMkV8f1c8r0oMckRydXU1NvRikF3YvV6K2fk7xeFUtphCbQGpPu0Itoq96X3TgfWjq755mabX0vPdDK7TxiTICl/oFR7fqfgQaa11SyVGTP6Cu1a5SBmEwWq+tyY9/oL2nX3h8V4Msutzw7Rj36ed8ZRhs4cEasEfwpP1p4Gb8zxGzE+c+DNk97uIhrcjeGGcT/bhpKhcOG7WR7pHRyM+E02p68cWmC4CYyeNIrCLzzPzh3jkXlWknTr3QwztbMDzXul6Y0Sy+JPJyxFbh0vZgpItoiSM/Y8gMxmaSrTK7FNKlgigeok2wj2iKfpGnJMjss196/J0LH+ni2mD10QrWD7fTaVgyu0jRVVYGoZRQe8HRRsEJ88g8DUyPUjamALTwMIe6JULB24PyyWMJ+EH39H3RtKYH4tvcJy6KVvsEbFvOiN89U7yklgp+lOrMPevp5HxA+MUui3qfHfP8+DDbx/2nhHt6SHZfi/bKM9f165Bv/IxZMgj5NACNR/q5Wb34aNN1fhIHChHqPWEtC4tUJj7MOWBU8339SU5n38WD+4+jaEz1+PZXXK6H2PRgN8veMmr9S5HJP/nUZnTEJK/qZ1KFzx5frh67yqQZRSqedepYaHSU/Y73xOh7d+Cb7vWF8tToEyfTckgvBnRFL08fVKu35S6zm1Dpd/TB9VgO6G7vuv9b57UMk+yAnG8m4yOdgqf8bpqcp8Cp5/a+arTRz98hXk0fwDU6Hv352yafH3/y3O10948ti/k38kbWHvA6GgahJsnq4dBco+TUNezkKdJqm2Lxn0lim8eJho5R/Dyh6qAosZmF7qJZQtRflcBHGerkft2nI6Cj3ei5f7Cw7ciqWk3Ch6JmbH0CcN9PrnlojcxzDy2wSMtry64k9rDRWN6bwE2VM9EZuc7+N29a0XIjzPypjN3jkXr4TwsYoCPOg6yi5rNePmUbMUXoJwXfOgTC34kgrtoH77zCoN79Pk4nzwO6CPyfZxK5+8UxDCb9Pg07XoOTQfiMLjLa9GPG4vr2XrvMwzwUfT6PwpRdRZwjONtFKPJGKg08wbRCor7c4rjkbxk7RxkXDiIl4O5LG0M0Efke1+EJqdCH98QsVPlfr5B+87+ckwbdhcU4JFYujhTgIw7Z1bxRjN9hin6qNPvsDTyzJO4K9K3jCXqU/o17bWBfvKqeHF6BzXrNe118dXVEHVaan4kTkbjzpnkFwM8ERGRDTFFT0REZEMM8ERERDbEAE9ERGRDDPBEREQ2xABPRERkQwzwRERENmTPAH/T06i7q1abeNU4IiJKRPYL8PICC+OGwXk4D7m7eP1jIiJKTLYL8FOHjOS1j4mIKOHZLsB/O1m/fzIREVEi4yA7IiIiG2KAJyIisiEGeCIiIhuyWYBfiOwhwKdn9vH+w0RElNBsEuAXolw77z0bDbvyeJ91IiJKeDYJ8JuxSAT23F0NyBaBftd371DlREREiclmKfrNaDgLXH/zHZiqSoiIiBIRB9kRERHZEAM8ERGRDTHAExER2ZDtAvw/O7vUIyIiosRluwD/emcr0G8s7uZtYomIKIHZL0X/4WLkHm6EYxzvB09ERInrivT09K/U425lZmaipaUFly5dUiVEREQUqzjIjoiIyIbiPsDLzMK1116r5oiIiEhiC56IiMiGGOCJiIhsiAGeiIjIhhjgo2Xgr7C5eAu2FT+BearIn3n5cjnTlP9T9Uyo1uOL0mZ8MVrN2khRaTua95x2Tzu6UKSe81SEvJ1NWLm3CfMXqSKL9c+Y1iOnZz5XzySY3K1Y0s1+spMv5zfj0vz1ao7IXhjgY4wM7vk3X0TDzgWYW6Gmmj+rZ0NRhMu/nIMvOg7iqmOqyHZSsX16OjLkNDsJlao0WEsfUuuYfjMOdqpCG0pbc1xUdOqQo+YT2ZV7xe9i2Bz8K893tZAonjHAR0v7b7FQC9irsFUVefspvnez+O/MATzZrpf01pfzl+NfqU58/XdzcYUqS0yVqJ2VidXTMvFiuSqKmDLMFy3glRVlap6iayoe2bUez3pMK3DvFPW02Ydz8bVXnLg8brktM1yU2BjgY9DFjtPqUS/dtA2XhwFXv3InP2iKIfdhY00NNkas0fw6Nty1FA+apt1N/TD2F36C/LE78fVG4IsfvYYvVRGRHfC4H2muvnc1zf0VJqqnIu3LaRNwuYfUfE6F3i/tmqytzkV1ovw48nKty3qmeN1pX3dftzbt3Io0tYzO8ryYlqwxHem117OUKfrrB5tatr6e/l5ih2rtuybL+9P6w33sf6/9Kqi+c/e6jEn+vft1isYni4UdmOGxjO/92uNrBmtqKXbUzMIwNOJ4qH0pIdizuwGd6IcbMlWBhZaqF/vkMlP1ZCMM8JHmSs0vQM0ZVeZhPB6ba1QA8pAhSq7LesBdISgux2MD9SWDsx5fitb7Ve/u85ual0E5q0FPW2tT2UF0OOb4SC0nY0xJE2Zgu1p2HY5eEAHC64Avg8YyOE6uU8ttR3PKBBSZ1pdTsRgoN71mlROp45e5A3r5DrFuIHXkFMu6y5DlEP85j6FeLwiQOzUvXyumaAF5DlIPGfsrE6865T60Blt9/9/e7n+/ausqmQC41iU/I/mEE69OG4XauhK8qF6j8pAcYCDL9Xl9yvXarxmF5s9cf827fVS8Ala0ETX/MRZJnUfwVP7DeE4Vx4QP9+HKDuDy8DsQ0LW7ieIAA3yfO4QntxkD6mrRLEounviDmpfTotD640ePxheizXJlN82k1hWjPPuj6+bhTRkDHaO9WnMdMnAUl6i5StSfFEEiZRAGqxJDc1UmNq0wXrMEJ+T6Bt7iCtb1xTLYqBnJK6Ab685CjrmlvWi0qPx04miVsQ3xL6dwAlIvHMTLrv0l948IpKKidLs1kDq3d7tf0yZnIVUE7Tddy4iKTZ32YSIr1NHw4jXdn7n+mt4Vr8BMWbUDNT8Zhq7DTyH/nlLsV+W6KSh9qQY1NX6ml0rFEr0xDPfem43kzga88rwq8lKJK98V37vUQQzwZBsM8Db11aBB4t82XPGhPh+olnbfw8c7znpWFGTlwLvV14lzMqaY1BeL1t+seWhV894q0WqpwLQeOIEO0Wp1THYHuZxs0Xy/cAL15spBXNMzEh0n91v2TSPOyQrPwGFqXtfc0H3FZvBAmXb3xfszCVRPrxmo+zbV4NFxSWj8Sz5mP+EZ2nX7UXpPPvLz/UxeFYJAiKC+xRhgdz/GJp/G7gUv4V31rC9XtLWJf0WA5x0oySYY4BOatf/X6J+NIB/9xDNk6t1MZRLcrUU9GDaLcv8VhTiTe4tocYv3OH6Zx75YuXcZxqToiwSjvuqgqBSZW/5FyMuNgUrR1FL8cKh6HFWNeH6BaaDdbmCmCPZlyzwrTkR2xgCfsGRwn4OMCwdRaeqL1ftnI0T1E6fK1K/pNV/10cKsbxCFRppeS887cSLip7dFUd0HIiCrrg/TvnBNrtR4gByDLBUGUVGA+Gy7zZ5EweulmC1a4U8d7sKwn9SgZtN96gmzSKfoheefxe4mIHn4bRiuiojsjgHepnpMN2pBM7qtYr2fOMB+dK1vXk/Ta+n5oAfXRZZMO8vgs2NVqKHHdyo+NKq1bqk4+esaaT2rfzfSong2wf4nZiP/L43A0Fk+AnYkUvTBC7VbiyhWMcDb1bFjuBrJ+HKUn1HPzjatBZmRbR7hHtkUvR5YzH3r+ilsXil6jT7YTrZIZzhibXDdfRil0s5JI6aE2LpUg+Acc3yeEhgcNY7BNOiuW9pnn4wxhdazJSKs8mHk/+YIupLH4tGajWIvRs/wZSswMxN4b7+/fvgifDlcfPc7RIBXJUTxjgE+wiZOLHed8pYvr1LXbxQeUvObJ47XF4qIpbhSNJj8nvYjWu6b5Glj8rQ41f8rT8OKaIq+PFdbvzmNPKDOd4pe0gfbCb3pRzb3+RfKmoR+ypk2H/J53c/h+Hv6o65T+/23Lk371jWZT20T+0Oemgivfvjgz9XXRt/LU+c81qNPXteU9/HZB399gRBpKfudaMQw+Kt79tqUe1DmcRW79fjF8Eb8/q6l2OBvFP1Nd+DLVODqNxL9io9kJ1ekp6cHdFZIZmYmWlpacOnSJVUSG2J1u2LCTdvwr/snAIfX4mu1nqPg44Lp3G73KWKe5M1mlv/717F9eoqo0oTLZWzbcQYT2tOQ8dA1qiyWmcZTWNLyMiujZUDKLKcnkgd505n/u+Egrkn4SzqTnbAFb2cfzsVVshU/bgkux+GpP97ndpNPakS+9yl3/k97JJPRr+H/5CWd2Xonm2GAt7krXxSt945k0ZKPs+tsL6rTxgM0V3lfYY0s1Ih8r4vQ5G7F3XJMha2uHxBmMsv1IweuOrwWV9v2bouUqJiiTwjyfvBzgFcyYv4gJi+fawz0k1fF6+nOb3qK/qKaEzoHYG2It4yV94OfYx7U3hgvKXpJpenVnEGehueve4NUah7bce2L4evgIYoVDPBEREQ2xBQ9ERGRDTHAExER2RADPBERkQ0xwBMREdkQAzwREZENMcATERHZEAN8VBXh8i+bcalUTL/c5vsa8URERGHAAB9FX85fjn/hIK4pzcC1vOY1ERFFEAN81KzHl7zeNRERRQkDfLTcdAtT8kREFDUM8ERERDbEAE9ERGRDDPBEREQ2xAAfJV+NysJlOHEl7zlNRERRwAAfYV/l/bd23vsX2IRrS+/kDicioqhgvImwK2r/TQT2DFyNJSLQv4YvVTkREVEkMcBHyRXHT+AqOPDlaFVAREQUQQzwRERENsQAT0REZEMM8ERERDbEAB8tH37Aa9ATEVHUMMBHjRNXdABfTOJtYomIKPIY4KOmElf9bi2+hgn4nPeDJyKiCLsiPT09oDiTmZmJlpYWXLp0SZXEhljdLiIior7EFjwREZENMcATERHZEAN8BMnug2uvvVbNERERRQ8DPBERkQ0xwBMREdkQAzwREZENMcATERHZEAM8xagyzN/bhCVritQ8EREFgwGeiIjIhhjgiYiIbIiXqo2g+LiMbhHydi7DmBQ1i04cLRuF2jo1q5Hp8jnIUHO+lsmpaMKMgQdROWseWlUZcrdiSckEdFRl4sVyYz4LTvG3rYVieYe+GC64/y5tzXEUjU/Wy33oOLQOm1ZUqjmlaCNqfpKGI7+ZjdLXVZkPU1btwKPjWrEz/2E8p8q8/HwDqn+Uia6jv8PPfv2GKiQiij9swScyGXD3iuAOEWCnZWK1Nj0NFG5FmloEi+qwUgT3VBFY9eczUXkIGFPShPmL1DJBSdb+9vZ2Y33b0ZwyAUUVZdqzrStGucvFvAzoxuvKySu4h9mCrEzt/6Tv/ACTtEdERPGJAT6B5RROQKqp9ayrRG2xMS9a97mime3c7hFYW1c8jaMXgAxRQXBVBILhsb4SnHCK/wbeEtq6wmzLiSbt/67/+SvYfieieMYAn7DKkCVid8fJ/abgbpE7BY4UsUx7oyowVKL+ZCeQMgiDVUkwmhtK1KMY9KdHUFBQwPQ8EcU9BvhElXsLUsV/HWd7Tnn7X2YQ0nLVw6iagtKXalBTo6afDBNlSRj7H6ayTfeJsvuw0ZgX06PjkkTZMMwyle1YNUWukIjIdhjgE1XdB+gQ/6UO6c155m1o9RiMFy37UXpPPvLz1fQXmWHowpHfmMqWyGF0z+FhY15MTx3uEmWN2Gkqm/3EfrlCIiLbYYBPWI04d0EE+JFT/Pd91+2HU/a1Z+sD4NyKkDMyGXAeQ70q8SVtcpaWJQiN2r6BsnUeRZOX44XqalQ/v5yD7IgorjHAJ6xK1NY5AdMIdl0R8iqMwXNqGcccjxHzaWsWY0xKJ45WufvSW9pln3wWclTKvqfT3XpWidZ28Z8jD3lR7AaYNGE4ZCIfybfixz/XioiI4hIDfCIrz8XqsoPoEAF85d4mNS0Gqkyj6uUyVU5kFBrPN4nA3YZXp3meBy9Pb3vVqZ8Cpy0z8gQq1aluoaovXoejF9zrlFOkL137xq/3Qh9HDwwazDY8EcUvXugmguLjQjdktWBDNWZmduGdjT/D2gOqkIgozrAFT2Q2eTmmyWvdNO1lcCeiuMYAT6RZgA1ycN3Dt6LtlQIUPLJFlRMRxSem6COIKXoiIuorbMETERHZEAM8ERGRDTHAExER2RADfAQ1NTWx/52IiPoEAzwREZENMcATERHZEAM8ERGRDTHAR9x6fFHajEtymr9elREREUUWA3zELcXVpRm4tnQ7rh42h0GeiIiiggE+apbiqsOdwA23IKBLBxIREfUCA3y0pQ5igCcioohjgCciIrIhBngiIiIbYoCPoiva2tQjIiKiyGKAj6aWNlwFBy7nFakCIiKiyGCAj6YP5+JrpRm4asBy7bz4fzHQExFRhDDAR9NN2/AvEdi/PCnPi8/A12or1RNEREThxQAfRV+NysJlOHHlMVVAREQUIQzwRERENsQAT0REZEMM8ERERDbEAE9ERGRDDPBRsx6XxyUDjce404mIKOIYayLOuB/8HHzRcRDXvLhUlRMREUXOFenp6QHd3CwzMxMtLS24dOmSKokNsbpdREREfYkteCIiIhuK+wDf1NTE1jsREZEFW/BEREQ2xABPRERkQwzwRERENmSbAD/1u1Wou6tWTFVY208VEhERJSjbBPjX/1GI3F15+PUp4LY7GeSJiCix2S5F//o/9sCJJPRngCciogRm2z74tOQ71CMiIqLEw0F2RERENsQAT0REZEM2DPCNOP+JekhERJSgbBjg9+H9TuD6EQUoViVERESJxpYp+oq385D72nlM186Lf5qBnoiIEo4tA3zxbSKwjwM27RKBftdiVKhyIiKiRGHDAL8Q2UOAT8/sw+uqhIiIKNHYsgVPRESU6BjgiYiIbIgBnoiIyIYY4ImIiGzIdgF+6nenw4EunDy7T5UQERElHtsEeON+8I+PSILzcCGW82p2RESUwK5IT0//Sj3uVmZmJlpaWnDp0iVVQkRERLGKffBEREQ2xABPRERkQwzwRERENsQAT0REZEMM8ERERDbEAE9ERGRDPE2u1+7AjUseQ0Yq8FFNHprfUcURJG+HWzhEzUhnq5H79mY1owtkGXLLqWjCjIEHUTlrHlpVWVzK3YolJROQCidenZaLelXcl7R961AzQnNVJl4sVzMUY2LzeBbv5HVa5DVaXD45gl+/tiridzxNwBb8QmSsrMX3pt+h5uOU/IJo97sXk48fQ8Xb6rldT+JtXvSH+lB9cSZWTxNT2UF0qDIKl8Q4nsUyWYFduXMr0tS8L6//o1Adj/NQdVYVRgFT9L22Dx9tysPh1dGp7VIwyjB/r/jxdTMtWVOklo1lRcjbGeB2183DJhlMY6T1TvGGxzM7YYAnGyvBi1qw06fKQ52iTKau3WWbVlTqi8YsWUlZhjE4iErTdr+MxZi/SC1CROSDrfrgr5leheyxpn6O96pxeKue7vF6zuLTI0/i73v0G9Toy7bi1OpqfEP1R2k6jqBh0yp8rs24+6p0XWjeXIiPWtSsoq3r2yfF372PwSsLcKMqN7+eIXleLUYMVTNmpvchaX1WyYH24dyBtXc+hts6e9Gv5erXNXTiaNko1NapWSFtzXEUjW8TwXMH0naKgJSinrhg7teWwWoOUg+tw6azs7Gy0N0x69Uv2+1ryhatfA0f/czq7yBfwxK83dvo3bp19cGLbbjb9Lqe26Vet307Vlfd4rF9HV6vZ2yjmvWxz3T6PslQc3oFxL19+jbDz9+aWPeXx37Xae8R21HZnifWmSxeyvN96O9VbbesUFjHI/jat16fUzd9/2rZjhjpgw/mt4lbn8a4/GFqRjD/JrXn0nz+/iXtd93ffOwIDI9nnvTfgvjeKt6/Oe9ltO94cYma8XcMMB2X1PqM34r1d+46Hnh97y18/P4MPb3fBRuqMTOzC+9s/BnWHlCFIbJNC17/EosPYLOeXpJTw8fTkXGr/vznewpVeTU+EvPyC2ksJyevHzSGYcTKxzDgn8Zy4u9SxyJ73kL1vDuVdbimUZX5If9u5XR8ZmybWP76seLHpLZN0n8MjeJH6LlObTtNP4boE19+0VJ82dR6fNWZjDElx5GXqxZxcWCGaG06Tq5Ty25Hc8oEFFWUqed1qeOXieAO8SPT1ydb1hmF5vX19JqVItg5xf8OZFlasWmTs8SPrhPOA54//IDIbS3JgrPMvF11yFFPuzjmYKVpudVVTu09uVvU8oChKgJq+ysPwXufyYOEOrAYy73qlPvQ+prJGGAapOaTKzUv16HKfBmYh7sH1mrbDEceliyS72Mdjl4AMrLl51SJ+pOdYl9kIcfy+er71ok31UFQHixXqoDtuf2+vhsxKoDfpjy26AFcLSOPBUMLMM44FrScx6dIwjcG67M+nX8/hODO45lO76LSK7ru79rLmG36nhnLyOBtLCOOP/K32kP/uF/a73wQ3lTr8zhOWX9vMqCreW0KebDuAnw/U/6fhOETJmklvWGfAH+DqM12nESHqcYpfwS96UeSo0jdP5TNOP+e+K//t3CNXhCUj2pMteF3GrQfZdIgY2DMQvQXNd1Pj1SL0KS8U43mDuD6b98R0uuFTwletHxZ66vkYKlkOCZ79wPLGq67Vl2CE/LLP/AWzx+Y9mNw16BbD5zQ1ucOYgG8ZvkxNIv/9KBkKELOSNkyre2+teuXZytb3y7vSoTeSjW1qNW2pA7Rty1tTZ5okYtlTC2H1hVPiyAqKimF7u3NKRQtALEvXja1QuqLxUFJvObta/R1ta6o1d9noex791HZCFaK2PoqY7vEvjr5tPt9qM/J+Dw8P19j3x5Tn1sZckVLSbaizK1xffs932f43IeNNTWo8Tdtuk8tF5yefpuDRUv50yPPmFqzm9EsA9bQ6bhRBvWW90V7102rEKx8Wu5d4Q58o7/4bX/cQ9C04PHMZNFsjEnxzoC1rsh1z7uWMbfMxXFEVmRFxT3X6zccCM/1eR+nImEL/tYk/+/Cuwff0Ep6wzYB/vOPxU9M1iyXPBGmgNiFz0w/Lqlzq6iJBplm0zXifHc/zMHfEvU1P4Ks+UdF3Qfii+5LJ85ZWo/aCGprbbb9A895VRvuNm3r9Zqq8uAY7Q56uVPgEAGsucEdWINy4QTqTQcQvy60wfOroff16xUbayA0VKK1XfznquyUIUscKDpO7rfU9BtxTrSmUwca6WB93fr4Adk61gfZhdz/bnmPHWd9ZDrE5/Gm2LepI6e4K2bWfbtotNat4P33fip1YfEcHs7PR76/aclzarlg9PDbvDUbN4pjwbnjlhaxR6u9EZ+JL6cR4LTgLFrM/bUW7TB8w28e1z8ez9xyssUPpYffprYM2tBqXcZS+Q5KoMeDMNvySAEKCnqfnpfsE+BlykrWqrX0Ua2oQYvJlX6KcS2r8IGoTV8/tkDV+oVbC/RzUU/1ZXpep6ViTSO4V3r0GUdGIK+pt+rdLWwthSxaxHV92r87DANkv7tM73lsv+e54Mi9Reu/k6l9z+XM/fZurStGqfSfbCGrFr2l6yOc6htky8edpve9b70rdC4pg9BdxjpeXDNIVlOSkLFQHVOMaeFYXK8vIuzDZ+fF7/cGWSmTrddGNB/pMrVoRXhts6bMu8fjmaEIaQPFf9ZGgS9eFW83d4U5sdhrFP07i1X/Uh5OyfSTuZ8spulpPL2fTP2Y84dpKbW+PlXFGLQiU++u/iUVZCIl4Nes2w+nq+9Ybzl7t4ijTW+Ba4N7XNtumoxshspIyBS3z+VM6X1Peote6/dz5EWur1tr+Rhp+hD2bTcH29BFJkXfnc/b5DuWA85UX7Jl8vh9ynS3bL2+14CPxN9p6WitNevdeg4Ij2eCNfMVmo724LpI7MJeAd5Epp+0H4VXH5OeTtNr2zFCq916H0T6Ori70s1RbRUH85pqsJ1M02sp5BAH14VVoAckayo+1pSg7lCnnqb3tW89KgBm/roewiESKfoeBDKATtBS6sI1o0YCsr9d9kunjkSq9netoQV4k0Q+nrW0+x70aWbNOLloXUk9HBdUd1Oo9O0LX8Zq0uMvoLq6Gi88zkF2ijzFwxjUYtAHenj3+ejpNNcAmVgQ4EEk+lSwMv9w1MjvyKXog3xNLdA4MEOeshLy4Lrw0roOfJw94MmonMzp9mI7ORU+RqSL/XG7TPdH+P1qg4rE55BbmOVj36oKwPjFHtuXUyE/J/dI+7in0s035ld1e7zQWvqpYzFiLFR/vRzEloSM/LG4vuN8kP3OPJ6Z6QNN5Vk0noNM09bUub975Tv0QayLzCPmyzBfnopr+u62nm0T/5oGzi6q8zhdNxTGOo2Bsb0zCT/4jj6CIWnMj7FAexQ6mwR4eYpHA/ob6SBtKkCSn1MyOrc+ieYOz361oC/1OPgJfM94Le38WNP6gh0YIw4iziNd4iCi/t48hW2QTWjqi+UpVPLHpfqItdNGIpuiD+411aAuIeTBdeGmDRoU2+ujH95jcFx5rnb5Vnj1w7uDen3x0+IgZH5OTMapaZbze43ntb5+WcFQ8yFfrU/rAklGhiPZ576V4wL00//c26ZdS8DrHGP1vDpvWD8jQE5hOCsgCmTrueGI2G5rP7z5t6kFNcE08r3zlEoLBz2wjMczT7JbSh4T3INM5XQ3dpgqnaLCPEssA/f3Xo7b0U5BNXd3id+cfrqbWkY7XVc/TTRkap0e42lCPTUPb2DtAW0YvTAIN09WD0PEm83EAP2c1yTvPir5o5ODefr6QjcxTr+ZSTcXWCGiqIns8Sz+9fx+F2BD9Uxkdr6D3927VoT80Nm2Dz6e6KfV+Dj1xHJ+Lfmi+nwP7WBwJ4oBPJ71zqTHp0Fe66bpQO+Cu8QAHwP0ATrGebNuyfP0S0HGwqlysUlevWoOMiwXiyGivsPjWYh+vkEbXPfLMW3YXVCAR/6kynuBKfoYYaS1PMlLPS52Xw1K0VI8CX0/eNmvqwbdieAe9/dwJ7KZcB/P4l1f3Q+eAZ6IiMiGmKInIiKyIQZ4IiIiG2KAJyIisiEGeCIiIhtigCciIrIhBngiIiIbsmWAn5e/BduKTVP+T9UzsUBeOrYWu77r51rRtz7di2s2R5K8qIx+nWWP66knMu0mOHKfxMc11SOG+4FCob43fXI8ifJ3Vp7rX3db9G/1a7sAL4N7/s0X0bBzAeZWqKnmz+rZvld822O4rV8j9vxD3nEqgtTNIzIsV5MiIooG/QZIrPRJFaeO4NMhBf4bdhFiswvd/BTrivOQcaY2poK6Qb+aEfD2a4VY/okqjBR1Y4cu6w0f7GbKPSj7Rbbp1pqnsfuuZ7FHzSWWqXhk1w8h7yqq+wRHfr8Gz+9Xs2Qz6oqOzu2ed0yLETLAF41v838TKNmKVndGfLFcldnZTU+jbtwwOA/nYdGHqizCbJmiv9hxWj2KJQtx94gkfHrqmcgH90Rx74N4VgR3HPkjHrxrqZj+iCOd6Zi560FMV4skDFnRkcG96b/UvliK3U39MPYXK3DvFLVMvJlaih01O1A6Vc0TxbMPF6PqLOAY9zSKVVGk2bIFP+jEH7DwrUOqzEq18tWcqA6gYeciPNmuZoWJE8vxUFY7aipqMWTuA8jup5745Die2fZbvKVmg6G33ltRtWsxKlSZB9n3rt2HWbHcUlGjtcpH4tzmQnw2tRYjjKZaxxE0bFql3XM6eZ6p3AevWzj2SPa9L8OYFDWLThwtG2W6D3NfGYZ7t9yPsR+LgPYr8xWd9VbsABH0S9ap+3GHjeka+GYxcD386b9dj5k3NOD3C17Cu6rM/z4S5I0tfpSJrqO/w89+HeI9q1QLTN7jXRPO/VC0ETU/Eb+HziN46p5ShJKE0G8jrGYka0t3UR1WFg7Svs+theZlzbceVt//dvG3Vbd4vN+OQ+uwyeMmR9bfiucyeos2Gc1eLVb1dwh2/wXTgrd+dy23V9Y+yyw4rfvC12dq/dxd5LGhFgNKfPxGXEyva2rBn8ju4TWlPvnO3oeNNbOQdvgpzH7C/7dwyqodeHRcK3bmP4znVJlP/Z7ArjvHAqeexF2R7qYVbNCCH4/H5hoD6vTAfV3WA6ZBduV4bKC+JEY8oS0jKwBG//wzJ4DsWVuwboRaxiUd+cUP4DunjWVr0dxvFB4KacDeHZh2cxJwtsF3cJfeWYzDq/PE9CSaO1SZT0nIWFiLWz5+Ui1fjY9SxyJ7nj6Ao3OrLBPT5iP4VMzLgK4vp0/Bp+srUTsrE6unianKqcpiwJTbMDxZ1IP+5hm4hi+boKWok4eL5/WiMCrBi3I/mKZXY2KXTEVWpvjs333bFNyFe3+IsbLvIvO7XhmNBfIPhKTv/ACTtEchqJuHTRHYD/JgqQX393YiP8TgLoNpVoPpsyo7iA7HHKysKFNLGJIxpkQEF4ggqS27DkcvODBj51akqSU08m+1AKjWJ34LqeOXeQwQy6lYDJSr503LLFlTpD3fukIcQ8T/GdmWbcidAoeoFHSc3B+eypGVDGoiuKeKyoaxba86xXv06h/X98Xt7cZy29GcMgFF5n2mAiRc65L7Sz4hA7es+Lt/I5WH5G1lZLk+r0/e6foMWaFw7X/9Ne9W+8wslr+zAftkH05+Alx/8x3iVxt5Ngjwh/DkNmNAnf4DumgK4HMrjNa5qAjkpANnaj1a92+99QIaxA7PyPkVJqoyQ/NfF5iW/TP+fkb8l3KT13I96ncHRvYTX/UzYbpDkmjd/32PUfvbjPPvif/6fyvGRt37IFtlNTV+p43ev2n/Mr8pDkef4OMmNS/IVuwvhjdi9xHxgSZ/U7uncuySLQPf+0GbNt2nlgvAlBsxQPx3rsWdsRi+bAWenQns3i27q/pjsCVNv+WEvuO6/uevvb7ndDjdt6lGtISS0PiXfOQv6bYt1K3WFaM8W8niwP6mPKA7RnsN+pKtbHcLuBL1J0VgShmEwapEZwQwNVt+TDvWpA5xf2nriy2ZrfIdWvBLHTlFVRZKcMLHNqRNzhItSifejNAtj3MKRYtVtFTNt1SuLxaBFA7cbg2kzu2mrITa3oG3uCo73tsqGgB12ptCVqij4T0yEPpruveZW6x+Z4OzD3vPdImY0B/fViWRZMs+eJ8Gjsd3RJD17p8/hLdOXxQ7PNWSVrqIjnPqobK1RlQYQknRiw/zenThfJj63uP2fsqVDyM/Xxy4/UwPh3x8k2n59Zhy7o94cMFLMMX8GPYcHvaxD1xTyMFNpuVFRWfAQTzY3WDDPz2CgoKC0FOdYTcFpS/VYNbQLhz5TW++C/61tFtvVKrrOOv5YrJy4NXSvNCGFvVQp7dUPVP0VpVoNXX9SfUN1mBYhJyRySLIHfNq2YZHGbIcvrIDjTgnKx8DTd2CQnND96n+wQPdw1k9deKcfGsh6Ok1XWLuOxua1zvlJ5GGbxldvxGUOAFeaTvvr29+IIYYqXyKH5n64DLsXhqBPvd4Iys692P4u6KiY+1zj3VFs/TuhLCRfc76dRuMSfZ/R5SWCvd8TY8xAJJq1bvS9Fp6vhNHqwIMcsHKvUXrb5ZdBebtWrnXc6xAoOqrDqLDo+VfhLxc8SYvnEB9n4/LCQ+ti8iVTZslqsxA0rhHTWUbcZ8lAyezTrJyPctUtmNV349uTbgA7187zlpq2xRm4UzRN/2vaDP0w9iZw/Du75diw/OqXMgcIKrGnf8b4y35MKbo938EmWwaOtO7ojN8cH/x73m0xPqpciq7s/O9JIz9j94eHNWAMjmASvW3yknvE44QY/CWTDebXtO7n1d1Aag0vZbyjmRwrPtABGTVDWHaLtcU7Ol1jkGWCkMogwNj2/4nZpuyaTshf01dh58ylcmBdJ4ZuKcOd4mlGrHTVNbdoLxoSZwA334I/yP72odaB8mNx8T064AzJ7FVlYTdJ+fxKZLQPwopGZeW9yG/ckmDonthhW6FM0W//228K4/XTQct53n7GXCGSVj+fDWqq6ux4eeqqE+FM0X/OrTuyc4GvGKq6MgWxYTh4kvX9A/vVP3k5XhB7Ivq55eHPmApAp5boh8stRZTMJUcs0Wjte625rroBR29bzqwlrg+2E6m6fX0fHeD6+SYBFnhC73C4zsVHxrVWrdUYlb7Ce6tZ9vEv4OQlqvP91qMfmeDNTVZji5oxfth6rLtTgK14A/hyfrTwM15HiPmJ078GbL7XUTD2xG8MI4aOem4OZqXKmzEZ6Lqfv3YAtNFYOykUQR28Xlm/hCP3KuKtP7nH2KoCHTPe6Xrh+KbakdkigNFPB8gfNmzuwGdydm4d5n7QD79t/djbPJp7PaRrp80YbiocgrJt+LHMVHhcdNaUH8Rn9/QWah5qRRBhzZnm9ZqNY9Wl6fMRTJFrwezZDgmm1LXO32k6DX6QLKMQpkm725w3X0YpU55TRoxJfj9oFGD4BxzXKP5Q6fGFJgG3XVL+xySMabQeuZCaGL5Oxs4dUaVaPT9U5VEUmKl6E+twty/nkbGD4xT6Lao8909z4MPPzVycki23wscyPPXtWvQr3wMGTIHNrRAzYd6udl9+GhTNT4SQW+EWk9I6zL3KxbKo5V+Ko02bz2VKNqefxYP7j6NoTPX49ldchIBDdZzwQ1b8J9HZU7Dpva/hJLfNwBj71f7Yj1mZvq/qt8bv97r6sIYNDi06o5+KVL9u6AFMnlKlZrvdTCR2Z7fHEFX8khMCfZ8InkqlDylU57aprZHnvoV0RR9ea62fnPqekCd/1Ox9MF2QreD657DcXmGjNB1ar//0wVN79M1mU9tE9smTxOEVz/8cdEiV8sESBt9b/qczZPXNeV9fA69uXRtzH9nA2GcUXVyFaIxSsZmF7qJZQtRflcBHGerkft2nI6Cj3cyxffwrUhq2o2CR7aowt7RLqYyMD77IBdsqBaVgC68s/FnWHtAFVJ0aBfZcfi46E0sM41tsHzf9YsKRf4iWPH+nZU3nSlMPoJfvxadAM9BdlGzGS+fkq34ApTfpIooiiZh+c9FcBdtgN1hCu7GKUho/yDugrus7EyTFwpo2svg3gdyssUXRwTKuni6Brsake9rzIC/UxDDKt6/szc9jcIh0Wu9SwzwUfT6PwrVtYirsDaaA+4S3KTHX0B19S9xK97B7woeQcjhXbS6zGnItDXyyokRPMUpIhZggxyo9PCtaHulIGyZDAqcTBNrrd3yOMv6qBH5Xhehyd2Ku+X4hoidDWCD76y8RO24Yfj01JNRu9GMxBR91Mn7wT+GkWeicy1iCi/P65tHPiVJ9uH+7sTz98Z6TXud93X5yUxLzSP63bMM8ERERDbEFD0REZENMcATERHZEAM8ERGRDTHAExER2RADPBERkQ0xwBMREdmQPQP8TU+j7q5abeJV44iIKBHZL8CrKwY5D+chd1deVK8aREREFCtsF+CnDhmJ6z85gpcZ2ImIKIHZLsB/O1m7YzAREVFC4yA7IiIiG2KAJyIisiEGeCIiIhuyWYBfiOwhwKdn9kXthvpERESxyCYBfiHKtfPes9GwK4/3WSciooRnkwC/GYtEYM/d1YBsEeh3ffcOVU5ERJSYbJai34yGs8D1N9+BqaqEiIgoEXGQHRERkQ0xwBMREdkQAzwREZEN2S7A/7OzSz0iIiJKXLYL8K93tgL9xuJu3iaWiIgSmP1S9B8uRu7hRjjG8X7wRESUuK5IT0//Sj3uVmZmJlpaWnDp0iVVQkRERLGKg+yIiIhsKO4DvMwsXHvttWqOiIiIJLbgiYiIbIgBnoiIyIYY4ImIiGyIAT5aBv4Km4u3YFvxE5inivyZly+XM035P1XPhGo9vihtxhej1ayNFJW2o3nPafe0owtF6jlPRcjb2YSVe5swf5Eqslj/jGk9cnrmc/VMgsndiiXd7Cc7+XJ+My7NX6/miOyFAT7GyOCef/NFNOxcgLkVaqr5s3o2FEW4/Ms5+KLjIK46popsJxXbp6cjQ06zk1CpSoO19CG1juk342CnKrShtDXHRUWnDjlqPpFduVf8LobNwb/yfFcLieIZA3y0tP8WC7WAvQpbVZG3n+J7N4v/zhzAk+16SW99OX85/pXqxNd/NxdXqLLEVInaWZlYPS0TL5aroogpw3zRAl5ZUabmKbqm4pFd6/Gsx7QC905RT5t9OBdfe8WJy+OW2zLDRYmNAT4GXew4rR710k3bcHkYcPUrd/KDphhyHzbW1GBjxBrNr2PDXUvxoGna3dQPY3/hJ8gfuxNfbwS++NFr+FIVEdkBj/uR5up7V9PcX2GieirSvpw2AZd7SM3nVOj90q7J2upcVCfKjyMv17qsZ4rXnfZ193Vr086tSFPL6CzPi2nJGtORXns9S5miv36wqWXr6+nvJXao1r5rsrw/rT/cx/732q+C6jt3r8uY5N+7X6dofLJY2IEZHsv43q89vmawppZiR80sDEMjjofalxKCPbsb0Il+uCFTFVhoqXqxTy4zVU82wgAfaa7U/ALUnFFlHsbjsblGBSAPGaLkuqwH3BWC4nI8NlBfMjjr8aVovV/17j6/qXkZlLMa9LS1NpUdRIdjjo/UcjLGlDRhBrarZdfh6AURILwO+DJoLIPj5Dq13HY0p0xAkWl9ORWLgXLTa1Y5kTp+mTugl+8Q6wZSR06xrLsMWQ7xn/MY6vWCALlT8/K1YooWkOcg9ZCxvzLxqlPuQ2uw1ff/7e3+96u2rpIJgGtd8jOSTzjx6rRRqK0rwYvqNSoPyQEGslyf16dcr/2aUWj+zPXXvNtHxStgRRtR8x9jkdR5BE/lP4znVHFM+HAfruwALg+/AwFdu5soDjDA97lDeHKbMaCuFs2i5OKJP6h5OS0KrT9+9Gh8IdosV3bTTGpdMcqzP7puHt6UMdAx2qs11yEDR3GJmqtE/UkRJFIGYbAqMTRXZWLTCuM1S3BCrm/gLa5gXV8sg42akbwCurHuLOSYW9qLRovKTyeOVhnbEP9yCicg9cJBvOzaX3L/iEAqKkq3WwOpc3u3+zVtchZSRdB+07WMqNjUaR8mskIdDS9e0/2Z66/pXfEKzJRVO1Dzk2HoOvwU8u8pxX5VrpuC0pdqUFPjZ3qpVCzRG8Nw773ZSO5swCvPqyIvlbjyXfG9Sx3EAE+2wQBvU18NGiT+bcMVH+rzgWpp9z18vOOsZ0VBVg68W32dOCdjikl9sWj9zZqHVjXvrRKtlgpM64ET6BCtVsdkd5DLyRbN9wsnUG+uHMQ1PSPRcXK/Zd804pys8AwcpuZ1zQ3dV2wGD5Rpd1+8P5NA9fSagbpvUw0eHZeExr/kY/YTnqFdtx+l9+QjP9/P5FUhCIQI6luMAXb3Y2zyaexe8BLeVc/6ckVbm/hXBHjegZJsggE+oVn7f43+2Qjy0U88Q6bezVQmwd1a1INhsyj3X1GIM7m3iBa3eI/jl3nsi5V7l2FMir5IMOqrDopKkbnlX4S83BioFE0txQ+HqsdR1YjnF5gG2u0GZopgX7bMs+JEZGcM8AlLBvc5yLhwEJWmvli9fzZCVD9xqkz9ml7zVR8tzPoGUWik6bX0vBMnIn56WxTVfSACsur6MO0L1+RKjQfIMchSYRAVBYjPttvsSRS8XorZohX+1OEuDPtJDWo23aeeMIt0il54/lnsbgKSh9+G4aqIyO4Y4G2qx3SjFjSj2yrW+4kD7EfX+ub1NL2Wng96cF1kybSzDD47VoUaenyn4kOjWuuWipO/rpHWs/p3Iy2KZxPsf2I28v/SCAyd5SNgRyJFH7xQu7WIYhUDvF0dO4arkYwvR/kZ9exs01qQGdnmEe6RTdHrgcXct66fwuaVotfog+1ki3SGI9YG192HUSrtnDRiSoitSzUIzjHH5ymBwVHjGEyD7rqlffbJGFNoPVsiwiofRv5vjqAreSwerdko9mL0DF+2AjMzgff2++uHL8KXw8V3v0MEeFVCFO8Y4CNs4sRy1ylv+fIqdf1G4SE1v3nieH2hiFiKK0WDye9pP6LlvkmeNiZPi1P9v/I0rIim6MtztfWb08gD6nyn6CV9sJ3Qm35kc59/oaxJ6KecafMhn9f9HI6/pz/qOrXff+vStG9dk/nUNrE/5KmJ8OqHD/5cfW30vTx1zmM9+uR1TXkfn33w1xcIkZay34lGDIO/umevTbkHZR5XsVuPXwxvxO/vWooN/kbR33QHvkwFrn4j0a/4SHZyRXp6ekBnhWRmZqKlpQWXLl1SJbEhVrcrJty0Df+6fwJweC2+Vus5Cj4umM7tdp8i5knebGb5v38d26eniCpNuFzGth1nMKE9DRkPXaPKYplpPIUlLS+zMloGpMxyeiJ5kDed+b8bDuKahL+kM9kJW/B29uFcXCVb8eOW4HIcnvrjfW43+aRG5Hufcuf/tEcyGf0a/k9e0pmtd7IZBnibu/JF0XrvSBYt+Ti7zvaiOm08QHOV9xXWyEKNyPe6CE3uVtwtx1TY6voBYSazXD9y4KrDa3G1be+2SImKKfqEIO8HPwd4JSPmD2Ly8rnGQD95Vbye7vymp+gvqjmhcwDWhnjLWHk/+DnmQe2N8ZKil1SaXs0Z5Gl4/ro3SKXmsR3Xvhi+Dh6iWMEAT0REZENM0RMREdkQAzwREZENMcATERHZEAM8ERGRDTHAExER2RADPBERkQ0xwEdVES7/shmXSsX0y22+rxFPREQUBgzwUfTl/OX4Fw7imtIMXMtrXhMRUQQxwEfNenzJ610TEVGUMMBHy023MCVPRERRwwBPRERkQwzwRERENsQAT0REZEMM8FHy1agsXIYTV/Ke00REFAUM8BH2Vd5/a+e9f4FNuLb0Tu5wIiKKCsabCLui9t9EYM/A1VgiAv1r+FKVExERRRIDfJRccfwEroIDX45WBURERBHEAE9ERGRDDPBEREQ2xABPRERkQwzw0fLhB7wGPRERRQ0DfNQ4cUUH8MUk3iaWiIgijwE+aipx1e/W4muYgM95P3giIoqwK9LT0wOKM5mZmWhpacGlS5dUSWyI1e0iIiLqS2zBExER2RADPBERkQ0xwEeQ7D649tpr1RwREVH0MMATERHZEAM8ERGRDTHAExER2RADPNlb7lYs2duE+YvUfNwqQt7OJqyMpfeyqE7bHtdUUaae8FZU2o7mPafd044u8Y78y6nQ17lkjfdS658xrUdOz3yunqHeCnjfqt/Vyr11yFFFnj7Ha+b1iOm1+9VTFDUM8EQUmvJcrJ6WKaZ1OHpBlXUrFdunpyNDTrOTUKlKg7X0IbWO6TfjYKcqpPDpHIC1xuf00DWqMFjX4E5jHU8NAD+mvsEAT3HI3Zr1O3XTmowp1law3xZRJWpnyWCaiRfLVZGN1Rfr73XTilCrARRRdfOwSavc5aJeFVHsYYCnOOQOdtpU5RRlnThaZiorLtEXjWFpa45jZaEDzVWm7Z52DFk7tyJNLUNEFCoG+ARn9HW6JmvLV2thHkdernVZz5amFqy0Mkvr2itYebe+PfpZVYvWV9+r/vr+Wrg989h+y3YFvv1CQH3P1vep70O3MuSOTwac2y0t8hK8OGseWtVcz+sRtP5QWV6G+aZlXO9XvQf/+0/9neV9eH7evj+TcNH3v+frySm+xk708N0WAvueqefk5+Hq69Ynr8/A8rz1+2HsV+/9qF7D1/e7O9bXC/bvfZqE5c9Xo7p6AxaoEgoPBvgEJn/8WQ2m1mPZQXQ45vgIWMkYU9KEGdiulpV9rg7M8Ppxi7K9y+A4uU4ttx3NKRNQZFpfTsVioNz0mqL1nTp+mfvAVb5D689NHTnFsu4yZDnEf85jIaUEMwrN269v191eAavn7dcOmIWDTNkCsYzXPpMBcxnGtBuvl4nKQxD70EdwHnhLDwdIU7ZCy1T451iUh3Nl8rNJFo+P6+9X/k1KFnLE69Y3yL93IMt6sF80GhkyA1JlZD30gD9j4EFUqu2X3w2Iz8l3Zab3WleMcu0r4/U61HPxosfvtkvP3zON/F6VZMFpfNfU+tzBWnxO4vHLxuuJ6VWn/K26v2etK2rRLP7PyLasO3cKHClAx8n9pspkAFypeflaqqy3Jv8Aw0VdF8jE93+ulVCYMMAnMHlQ9Wg9ih/vm1oMGO3Vyus4JA5GrrR3JepPdorAMQiDVYlBppvd/aYlOCHXZwpi9cWjUFunZiSvgG6sWw9KLl5BKEiipezefn27vCsRPW2/3uruOPS06T2IFrcMoo4810E1bU2e2FYnXjV1E7SueFoLvGMKjQNtCeoOyfcpDuwimPa+dZyM1PZa13alprSZXj8ZA2TlqPyYz4N9TrZ48sIJ1Ku/dW2/OZMgvhsvy+01vc/4NgWlL9WgpsbP9FKpWCI4PX+33Xr6nejEZzDNtE71+aUOMb4r1myP2IYqWTESFbzJ7mW0dVt+02mTs5Aq1v9mLIxxOPBXvKuNwmvC3/6klVCYMMCTh5Z27ZfmpeOs54FAb3FZB9h04pw8mJhog6UsByFPlWhtVw+V1gMnLAcp7yAUrOaGQCoGPWy/qmQ4D1gOis42bXu1IIoi5IyUqXdrpkG9T9NBXN+HovUmHsuWWW9Tnh7v8UIbWtRDN1Wp8DjY65kRd0tObb+Pvzc+F/19xrv9KL0nH/n5fqZ7SsUSveX93dYF+Dvx+gxEQBct524HHtZ94JX58M7c+PuO9pU3sPbeAhQUPIItqoTCgwE+oRl9tu6pSPYLR5JXn2ETZlgDhsokuFs+ehBqFuX+KwqRlzZkkPhX764wb//KkgmiNWQYhgEp4j+ZXjUvIyav96nRD9oy5VnpatH7SOWHiR6kTQd7rdLioyXX/oHffe1uQZKHQL7bYeY9dmGO+DwtVCbBlbnR0vO9yIZR3GCAT1gyuIuDwQVTP6sRZCJFHgBlMJTpctNr+urL01odRppeBaETfXx6WOvZNvGvZbS+adK7OxpxTp4TbnmPrqmbbIbWotf6ns2p/DCr2w+n6WCvZUaCbMlZsznxKcwp+iC+2+Eig7uskHuehaFnhDypbi+VudHS873IhlH8YIBPVFrQjG6rWO/3C7DloLU69DR9KEEoIjxS8f54p+JjSyVq60TU0Q72KjPi0X3hGQzMjH7bvq5ohUd4U/RBfbfDwuhKOYi6AD4PfbCdzNzofxf04LoIW7BBjqKvxgYOsgsrBvhEpQUrzwFX8rSoSKbo9RawuW9dP1XHdxpTDzSyb3qGI0bSiarrIKOw+xS6NtDJ16hoM9ni8/F8TqFM90f4/WqDtcTBvkJU8nwECCMYzDBvn9jeu7UBhjtipN82tgT33Q4HVZE0D0bVugh8pOg1+mC7jMJlGJMSI4PrXBbg+5n6o8zJyzFJf0hhwACfqESw2qSN/nb3Fd/evi6yKfryXG39rgFle5dhQJ3/NKbeXyzEUDpRDobST3kz93uKyTw4Tu5b4/Q58zJicp3iJJdpGO31vH5qmmnktHbQVs8XymhhGgMQ8oA8dbB3OPy05OS4AMv2l0xAh8fIb71CqD8vg4YoMC0fX+evh0GQ3+1wqC/WT4l0fR9KBuFNnyl6nT7YTuhFNszc569VXtRZIHI+9DNBtuA/j3bpD5O/iaH6IwqDK9LT079Sj7uVmZmJlpYWXLp0SZXEhljdLimWty0uqH5NHFrX/chhinnyZjPL//3r2D49BUtVWbfUZy8rFf4vzXsZ23acwYT2tF5cMz2ByAs0qSsn+tun8mYzcwYOwNpe3CvAy7Qu/Pej59C2Mx13/lGVWYmW+wsP34qkpt0oeIRj6cOFLXiKWTF1ri5FldGnbT2djEKnn2oaWJ99tC34kQju6MI7rzC4hxMDPMUm0drQRwjzZhb2V4S8CnN3g3EZX/eFe6h3ZGpdG8tS3renmlpNevwFbXDdzBvewe8Kfoa1B9QTFBZM0UcQU/TBM079kbpLJVJ80VP0F9WcIG9Jak4Dq5S863oCHlce9KSlkYepGamRKXp/5DgJfaCfCO5llivt+RC+fSvvB98K8xhDZ3cpeooIBvgIYoAnIqK+whQ9ERGRDTHAExER2RADPBERkQ0xwBMREdkQAzwREZENMcATERHZEAM86VzXPK/zuosYERHFHwZ4IiIiG2KAJ512B7RMrJ7GS8MSEdkBAzwREZENMcAnrDLMV/dx9pj83mN8CkpfqkHNpvvUvD/3YWNNDXasmqLmfZmE5c9Xo7p6AxaoEiIiCi8G+IRVghe1lLx7ejVat+ac/AMM1+4nk4nv/1wrISKiMGOAp+g78Fe82ykfNOFvf9JKiIgozBjgqQ+8gbX3FqCg4BFsUSVERBRevF1sBMXb7WK1e0cPPIjKWfPQKguKNqLmJ+abQ1t14chvZmP/7Tvw6LgkVeZLI3bmP4zn1BwREUUeA3wExX2A9yAH2T2Ksed2In9Jd6FaDrKbhbTDT2H2E/tVGRERRRtT9NQnFmyQo+irsYGD7IiIIoIBnvrAAnw/U3+UOXk5JukPiYgojBjgqQ9swX8e7dIfJn8TQ/VHREQURgzwFKD9KL0nv4f+d+k5PJyf32P/+xsH34UW4pv+xpH0REQRwABPShmyHOK/9g98DLALvwU/uhVJIsS/8wrDOxFRJDDAJ6pFdZi/SD0W0tbkIQOdOFpVokoiY9LjL2iD62be8A5+V/AzrD2gniAiorDiaXIRFOunyWmnxclWu0YE97JRqK1Ts0REFNcY4CMo1gM8ERHZF1P0RERENsQAH0FNTU1svRMRUZ9ggCciIrIhBngiIiIbYoAnIiKyIQb4iFuPL0qbcUlO89erMiIioshigI+4pbi6NAPXlm7H1cPmMMgTEVFUMMBHzVJcdbgTuOEWBHThASIiol5ggI+21EEM8EREFHEM8ERERDbEAE9ERGRDDPBRdEVbm3pEREQUWQzw0dTShqvgwOW8IlVAREQUGQzw0fThXHytNANXDViunRf/LwZ6IiKKEAb4aLppG/4lAvuXJ+V58Rn4Wm2leoKIiCi8GOCj6KtRWbgMJ648pgqIiIgihAGeiIjIhhjgiYiIbIgBnoiIyIYY4ImIiGyIAT5q1uPyuGSg8Rh3OhERRRxjTcQZ94Ofgy86DuKaF5eqciIiosi5Ij09PaCbm2VmZqKlpQWXLl1SJbEhVreLiIioL7EFT0REZEMM8ERERDYU9wG+qamJ6XkiIiILtuCJiIhsiAGeiIjIhhjgiYiIbMg2AX7qd6tQd1etmKqwtp8qJCIiSlC2CfCv/6MQubvy8OtTwG13MsgTEVFis12K/vV/7IETSejPAE9ERAnMtn3wacl3qEdERESJh4PsiIiIbIgBnoiIyIZsGOAbcf4T9ZCIiChB2TDA78P7ncD1IwpQrEqIiIgSjS1T9BVv5yH3tfOYrp0X/zQDPRERJRxbBvji20RgHwds2iUC/a7FqFDlREREicKGAX4hsocAn57Zh9dVCRERUaKxZQueiIgo0THAExER2RADPBERkQ0xwBMREdmQ7QL81O9OhwNdOHl2nyohIiJKPLYJ8Mb94B8fkQTn4UIs59XsiIgogV2Rnp7+lXrcrczMTLS0tODSpUuqhIiIiGIV++CJiIhsiAGeiIjIhhjgiYiIbIgBnoiIyIYY4ImIiGyIAZ6IiMiGGOApTpVh/t4mLFlTpObj2KI6rBTvZeXOrUhTRX2rCHk7xfbIbdKm48jLVU8RUdxggPdn4K+wuXgL1o1Q80QJoxK1szKxepqYqpyqjIjiDQM8xRajNet3ipPWZO5WLAl0u8tz9WA6ax5aVRERUW8xwFNsMYKdNq3D0QuizLndVDYKtXX6ojFLVlJKJgCH1pm2+2mtPEctQkQUaTa5VO14PDb3AWRfqMXct2/C5lmjcJ165uKJP2DhW4fUnKSW7admcRENOxfhyXZ9bl7+FuTfrD/2pfmvC7DslHggU/jiddqMeUX7+5TjeGbbb/GWLBjxBLb9YKD2GmdvM6/7NGoqVmGr9vinWFecB4h11fQvx0NZxtablwmSDDKFDjUjOfHqtFzUqzm9n3UZxrSL4Fl1C5aIgJSqnukQgWnTikp9RlvPIBwtG4XWwibMcK3Suj6h29eUfeZzkHHhICqtLVX1d81VmXixXJVpTNtYXKLKDPr6UsW2vozFKBqfrMqt2+VebtPZ2R7b5/16ahvVnM/3KFnfp6yAuLZPbTN8vE+rbtcj6etynFyHNwcu0/a99tm43ken9rnUim+I/PxkhcL1uSlpa46LfQN9OVUx0suM/SV4va6J6fP3W7H6+QZU/ygTXUd/h5/9+g1VSER9zV4t+JvzsG3Wt/E/OxdgboWY/noa12U9YOpHl4FUVQTk82J65gSQPascjw3Ul9hao/5253ER+vWAbiwrJ3MwD9x14jVEcBeHYn09f0DDJ+nIn/srTFRLSBk/2IKHUg90u0xAZHo4+5ip9Shbwg7M2OujBemYI1qbWXCWqWWrnEgdvwzzF6nnNckYUyKCO0QgMK/PPCisx9csQd2hTiAlCzmWVHVOtgxWTpzwCLaBkdtaNPIEKs2vWVGmnnWTy60shAjY+vZVim3JKDSlzbWUul4RMN7Dq07vfSaDox7wjPe5Hc1yH1pfM2UQBquHfrmyFSpT4c/Ixbi9fZ22zani8RLtfYjXFZ+LY3IRULcfTvH3qSOnWAbpFSFnpAjkzloVnPXBc0Xj21z7wbX9vRjgtyArU/s/6Ts/wCTtERHFApul6GWL190ax6mT4iAIDOovmjDCxImTRetMLFPzZ21eeuutF0QgFQH4tp+qksiQmYS5rtc9hLdOi+pDv1RTa1H4RLT8e1omEHXzsMmjRVYpDvBysJQDWR6BW5KtVFPrrPyYts9Sh3iOTpctR3crrxL1J2WwNgWxAF6z9cAJdBhByaUMWVrLdId3SzkQHhkBtV2O0d4VGbmcqTVubMsA1YDOKZyAVLHMy6YWcH2xDKIO3O4aqV+GXNHy7Tj0tKk1W4IX5UA0R56qLLjf9wzZ9+6jshGs1JQ2vGlsV4p4/Sr3+0gdOEz8a3welspT7hQ4UkQltUF9LotmY0yKbPWbsxJq+1MmINfruxGYLSeatP+7/uevYPudKHbYK8B/0qEFJ7c/Y5loDesp+vGYmH4dcOakJeV9CGdl6ynlpuBbykFoO2/uJpAVi0Wile6Zfr94WgR19TjsnG0ioPlwoQ0t6qFOHPBFy86a6u046znfumKUaP35SF+bWV/TV0tz0WhRgemE84Dn+gPVcXJ/YAPT2j/wXE5WSMT71FP0qpLhta5GnJPbqwVRwd+2au/TXVnQW+aqVS5bx9ogu170vzuPmfZzJ87J+oNF64pad4teSZuchVRTZkTPlLSh1Zpq91OpC9ifHkFBQQHT80QxJoEG2aUjVfa7yzR+8RaPqbs+93iVU2EewS0mUx97pPT8mqp1a2ppakHHlULuI7m3aNuppfHN2793mWjx6otIaUMGiX/17gqP5XzuW+upZnqL3rPrI5xKcEK8jLvypKfnvTIjXhU6N1dFhohsIYEC/Gl0fCL+O+Puf/eYjEFxNiAD7QyHTMUa/axiKjvouwUfJgG/ptZaNFqaesvZlULuK3UfaNupdUMY226eVNdD69k28a/lPZomzwF7JlqLXqb7gYzcyF3Mpr7BVHnS0vPBZUY62hvVIyKygwQK8EGm4ts/hDycG/33gfkpvtfn2QA9aEa3VRzMa+qD7bSWppbyDm1wXXhZUvH+WFPxsaZ8B45e0CtPWnr+wgnUmz4PjwqAWS+7STB5OV6orkb188s5yI4ohiRQgAe2vn0cF/uNwkP5gQyo01v812XlYZ4q8aAqABlDjXXpp7oFPSAu7PRg5THQTJ7qFNEUfXCvqQ1wS5mAokJH6IPrwkp1HTjmdH/p27p5eFMs5jH63ksZ5vsYkZ62Rv9uNIt1BDRmICT6YLvUkbOROzLZ+7VUBWDMIvP2ie2Vp9z1okI4acJwJMkHybfixz/XiogoBiRUgEf7b7GwohbNPvrhvS9JewhPbpMDl9KR73O5P2OZPJXOtS79PPZnTsiT6/qS7PvVR39ro7jllNuGyoim6IN8TTXYTqa7Q241hptMo4vthVc/vGcwry+Wp9jBux/eFdRLtFT93ebnxGScmmZO47vHLKi+fteAvND76vXKkwMZKb4yI/JzWoejEJUr9TorjVMDzWdAmK/Cp51vbxp34KPy8sav90IfRw8MGsw2PFGssMmFbii+BHExGIoLCzZUY2ZmF97Z+DOsPaAKiahPJVYLnmKDcX52RNPVFDWTl2OavNZN014Gd6IYwgBPUVaG+bJv3rnd/6hzihMLsEEOrnv4VrS9UoCCR7aociKKBUzRU3TIfl1j0F131z4nIqKwYIAnIiKyIaboiYiIbIgBnoiIyIYCTtETERFR/GALnoiIyIYY4ImIiGyIAZ6IiMiGggzwn+O1PafRLKdnPldlREREFGtCHGQnA30rHI1pyHjoGlVGREREsSLEFP012P7/rgMGfoFubq5JREREfaR3ffDJX0DeTJKIiIhiCwfZERER2RADPBERkQ2FHOArP/y6ekRERESxJvQWfOPV6EQH8kovqwIiIiKKFaEH+L1J+Lfp6agdeEY7L/6/GeiJiIhiRug3m5nWhf9+9Bzadqbjzj+qMiIiIooJIbfgiyZdRDJScYzBnYiIKOZwFD0REZENMcATERHZEAM8ERGRDTHAExER2VCIAf5zzPn3i0DjtViqSoiIiCh2BBngjfvBt8LROQBreatYIiKimBT6efBEREQUs9gHT0REZEMM8ERERDbEAE9ERGRDDPBEREQ2xABPRERkQwzwRERENsQAT0REZEMM8ERERDbEAE9ERGRDDPBERES2A/x/3M5mq3Ul8ZgAAAAASUVORK5CYII=;" parent="1" vertex="1">
          <mxGeometry x="430" y="224" width="374.79" height="380" as="geometry" />
        </mxCell>
      </root>
    </mxGraphModel>
  </diagram>
</mxfile>
